#!OML:ASF F:\VICON\USERDATA\INSTALL\rory3\rory3.ASF
:FULLY-SPECIFIED
:DEGREES
185
root -5.12926 17.5389 -10.6205 156.106 76.1988 153.215
lowerback 12.9051 0.00890991 -7.33275
upperback 2.41043 -0.914256 -1.70146
thorax -4.59784 -0.290612 2.49016
lowerneck -12.5632 -6.09472 -13.372
upperneck 37.9325 -5.77344 6.33671
head 16.3998 -2.93009 4.31199
rclavicle 3.97569e-016 1.35174e-014
rhumerus -32.287 -13.7907 -77.6205
rradius 30.4904
rwrist 6.98343
rhand -15.4044 8.52477
rfingers 7.12502
rthumb 10.7747 -21.1789
lclavicle 3.97569e-016 1.35174e-014
lhumerus -25.5332 -4.49462 84.5857
lradius 34.1416
lwrist -1.62345
lhand -18.0386 26.6802
lfingers 7.12502
lthumb 8.23309 56.4998
rfemur -32.0501 -9.05465 19.4233
rtibia 27.1548
rfoot -9.72296 -12.2582
rtoes -3.67175
lfemur 9.58778 2.18581 -29.8847
ltibia 6.80304
lfoot -9.88787 -15.5027
ltoes 11.3117
186
root -5.02223 17.5407 -10.6332 156.306 75.8731 153.34
lowerback 12.8668 -0.088975 -7.26193
upperback 2.45021 -1.02449 -1.61959
thorax -4.52383 -0.349071 2.55413
lowerneck -12.5981 -6.09671 -13.3805
upperneck 37.7728 -5.77326 6.30597
head 16.3231 -2.9355 4.29006
rclavicle -2.80286e-014 -1.87852e-014
rhumerus -32.4391 -13.9753 -77.4425
rradius 30.615
rwrist 7.08816
rhand -15.6559 8.382
rfingers 7.12502
rthumb 10.5321 -21.3341
lclavicle -2.80286e-014 -1.87852e-014
lhumerus -25.5982 -3.74483 84.5925
lradius 33.611
lwrist -2.10081
lhand -17.9707 26.5964
lfingers 7.12502
lthumb 8.29864 56.4134
rfemur -31.8975 -8.89006 19.2416
rtibia 27.5311
rfoot -8.9018 -12.3574
rtoes -1.13093
lfemur 10.7218 1.83969 -30.0307
ltibia 5.13908
lfoot -8.84094 -15.4451
ltoes 11.681
187
root -4.92192 17.5537 -10.6421 156.567 75.5286 153.419
lowerback 12.8669 -0.23321 -7.24809
upperback 2.40206 -1.21471 -1.51224
thorax -4.55449 -0.442028 2.69062
lowerneck -12.5813 -6.04079 -13.3855
upperneck 37.757 -5.64861 6.20538
head 16.2894 -2.89633 4.26738
rclavicle 2.02139e-014 9.24349e-015
rhumerus -32.5776 -14.0655 -77.2487
rradius 30.7119
rwrist 7.10997
rhand -15.7668 8.41996
rfingers 7.12502
rthumb 10.4251 -21.3016
lclavicle 2.02139e-014 9.24349e-015
lhumerus -25.7538 -2.78937 84.5541
lradius 33.0994
lwrist -2.75498
lhand -18.3807 26.8354
lfingers 7.12502
lthumb 7.90287 56.6677
rfemur -32.0032 -8.92833 19.1345
rtibia 27.8672
rfoot -6.96435 -12.7194
rtoes 3.1115
lfemur 12.7223 1.46463 -30.2241
ltibia 1.47773
lfoot -6.58301 -15.4118
ltoes 12.6161
188
root -4.82145 17.5696 -10.6524 156.67 75.3453 153.3
lowerback 12.8401 -0.274733 -7.07581
upperback 2.33989 -1.25101 -1.51412
thorax -4.60652 -0.460633 2.59806
lowerneck -12.5577 -6.0525 -13.2522
upperneck 37.8083 -5.68546 6.16777
head 16.3066 -2.89523 4.22389
rclavicle -1.18995e-014 -6.83633e-015
rhumerus -32.7954 -14.4833 -77.0272
rradius 30.8333
rwrist 7.30569
rhand -15.5281 8.70205
rfingers 7.12502
rthumb 10.6554 -21.0078
lclavicle -1.18995e-014 -6.83633e-015
lhumerus -25.9739 -2.46195 84.4832
lradius 32.8113
lwrist -2.8455
lhand -18.7575 27.0724
lfingers 7.12502
lthumb 7.53918 56.918
rfemur -32.1827 -8.79663 18.9929
rtibia 28.0933
rfoot -4.73339 -13.2689
rtoes 7.59887
lfemur 13.5982 1.24204 -30.3387
ltibia -2.54444e-014
lfoot -5.65864 -15.3089
ltoes 11.6452
189
root -4.72017 17.5911 -10.6589 156.944 75.3159 153.39
lowerback 12.8566 -0.203362 -6.79336
upperback 2.29784 -1.12497 -1.50231
thorax -4.67844 -0.400835 2.43236
lowerneck -12.5052 -6.16573 -13.1216
upperneck 37.823 -5.90301 6.18772
head 16.3258 -2.96203 4.17254
rclavicle -3.73342e-015 1.14798e-014
rhumerus -33.1054 -15.1043 -76.7356
rradius 31.0285
rwrist 7.48868
rhand -15.3682 8.84791
rfingers 7.12502
rthumb 10.8096 -20.8539
lclavicle -3.73342e-015 1.14798e-014
lhumerus -26.1463 -2.56435 84.5343
lradius 32.522
lwrist -2.45287
lhand -18.7645 27.0996
lfingers 7.12502
lthumb 7.53247 56.9455
rfemur -32.25 -8.10155 18.7837
rtibia 28.2705
rfoot -3.24027 -14.0871
rtoes 12.1083
lfemur 13.7642 1.13146 -30.2543
ltibia 3.49861e-014
lfoot -5.30518 -15.2903
ltoes 11.6096
190
root -4.62259 17.6099 -10.6581 157.569 75.414 153.839
lowerback 12.9625 -0.147106 -6.62502
upperback 2.2446 -1.03646 -1.32925
thorax -4.8015 -0.356531 2.50768
lowerneck -12.478 -6.23938 -13.1366
upperneck 37.8001 -6.01262 6.18824
head 16.3242 -3.0088 4.15474
rclavicle -1.39398e-014 -1.69961e-014
rhumerus -33.2456 -15.2884 -76.5074
rradius 31.1507
rwrist 7.30821
rhand -15.5957 8.73916
rfingers 7.12502
rthumb 10.5902 -20.974
lclavicle -1.39398e-014 -1.69961e-014
lhumerus -26.2934 -2.22763 84.5942
lradius 32.0863
lwrist -2.52671
lhand -18.4715 27.0229
lfingers 7.12502
lthumb 7.81522 56.8584
rfemur -32.2719 -7.12441 18.7153
rtibia 28.4407
rfoot -2.38099 -15.0716
rtoes 14.6744
lfemur 13.8802 1.09621 -30.0003
ltibia 1.59028e-014
lfoot -4.85003 -15.3041
ltoes 12.1263
191
root -4.52411 17.6204 -10.6605 158.312 75.6277 154.406
lowerback 12.9978 -0.143111 -6.4258
upperback 2.24409 -1.00012 -1.1017
thorax -4.82457 -0.342162 2.63029
lowerneck -12.5671 -6.23886 -13.1815
upperneck 37.7521 -5.9738 6.13345
head 16.3163 -3.00688 4.14085
rclavicle 7.45443e-016 3.89618e-014
rhumerus -33.1365 -15.057 -76.4502
rradius 31.1847
rwrist 6.93633
rhand -15.9601 8.61474
rfingers 7.12502
rthumb 10.2387 -21.1161
lclavicle 7.45443e-016 3.89618e-014
lhumerus -26.3977 -1.37241 84.5344
lradius 31.6084
lwrist -3.05885
lhand -18.4756 27.3733
lfingers 7.12502
lthumb 7.81132 57.209
rfemur -32.302 -6.59302 18.9175
rtibia 28.629
rfoot -1.95072 -15.4497
rtoes 15.7916
lfemur 13.9867 1.16701 -29.7389
ltibia -9.54166e-015
lfoot -4.72845 -15.1024
ltoes 10.3014
192
root -4.42287 17.6306 -10.6648 158.954 75.8525 154.91
lowerback 13.0296 -0.135571 -6.15958
upperback 2.28031 -0.948388 -0.945105
thorax -4.81068 -0.322226 2.63738
lowerneck -12.6366 -6.21905 -13.2003
upperneck 37.6641 -5.96861 6.20798
head 16.2896 -2.99849 4.17326
rclavicle -1.65985e-014 -3.97569e-016
rhumerus -33.0459 -15.0145 -76.4323
rradius 31.2476
rwrist 6.69809
rhand -15.9441 8.68533
rfingers 7.12502
rthumb 10.254 -21.0447
lclavicle -1.65985e-014 -3.97569e-016
lhumerus -26.516 -0.542106 84.3969
lradius 31.1825
lwrist -3.50373
lhand -18.8671 27.8223
lfingers 7.12502
lthumb 7.43343 57.6717
rfemur -32.2889 -6.24677 19.1559
rtibia 28.8379
rfoot -1.7436 -15.4634
rtoes 16.7201
lfemur 14.1548 1.26218 -29.477
ltibia -1.27222e-014
lfoot -4.52768 -14.9449
ltoes 9.06836
193
root -4.31964 17.6394 -10.6701 158.909 75.9423 154.703
lowerback 13.0572 -0.0933672 -6.09574
upperback 2.31094 -0.879564 -0.841688
thorax -4.79899 -0.290027 2.69923
lowerneck -12.5746 -6.19584 -13.3148
upperneck 37.477 -5.97788 6.36222
head 16.1898 -2.99914 4.25233
rclavicle -1.89342e-014 -2.06736e-014
rhumerus -32.9784 -15.2976 -76.31
rradius 31.2596
rwrist 6.66522
rhand -15.7618 8.80175
rfingers 7.12502
rthumb 10.43 -20.9195
lclavicle -1.89342e-014 -2.06736e-014
lhumerus -26.7596 0.0513797 84.322
lradius 30.9165
lwrist -3.78005
lhand -19.0546 27.8662
lfingers 7.12502
lthumb 7.25244 57.722
rfemur -32.3114 -5.85928 19.1211
rtibia 29.0878
rfoot -1.30806 -15.2431
rtoes 17.3876
lfemur 14.3327 1.29283 -29.4051
ltibia 4.13472e-014
lfoot -4.01694 -14.9334
ltoes 9.6762
194
root -4.21268 17.6479 -10.677 159.134 76.0806 154.865
lowerback 13.0803 -0.0947409 -5.83732
upperback 2.41288 -0.837087 -0.773352
thorax -4.71089 -0.276195 2.61832
lowerneck -12.6559 -6.15739 -13.3775
upperneck 37.3916 -5.95184 6.50012
head 16.1694 -2.97978 4.32485
rclavicle -9.44227e-016 4.17448e-015
rhumerus -32.7463 -15.5692 -76.3739
rradius 31.1829
rwrist 6.84401
rhand -15.9278 8.75668
rfingers 7.12502
rthumb 10.2698 -20.9726
lclavicle -9.44227e-016 4.17448e-015
lhumerus -27.0417 0.506478 84.1725
lradius 30.7979
lwrist -3.87376
lhand -18.9878 27.9665
lfingers 7.12502
lthumb 7.31694 57.8199
rfemur -32.2045 -5.49196 19.1959
rtibia 29.3408
rfoot -0.865775 -14.6176
rtoes 17.7581
lfemur 14.5975 1.348 -29.2136
ltibia -2.22639e-014
lfoot -3.47778 -14.9836
ltoes 10.09
195
root -4.10423 17.6524 -10.6761 159.569 76.2991 155.264
lowerback 13.0898 -0.113429 -5.50473
upperback 2.5251 -0.807267 -0.736394
thorax -4.60495 -0.269765 2.46437
lowerneck -12.7526 -6.15058 -13.2899
upperneck 37.3661 -5.98383 6.55536
head 16.1803 -2.97458 4.3259
rclavicle 1.43125e-014 -4.57205e-015
rhumerus -32.5943 -15.3994 -76.6701
rradius 31.3279
rwrist 6.60473
rhand -15.9856 8.62345
rfingers 7.12502
rthumb 10.214 -21.1086
lclavicle 1.43125e-014 -4.57205e-015
lhumerus -27.3085 0.881131 83.9419
lradius 30.6296
lwrist -3.78094
lhand -19.072 28.1867
lfingers 7.12502
lthumb 7.23569 58.043
rfemur -32.0182 -5.2299 19.429
rtibia 29.5808
rfoot -0.854239 -13.9388
rtoes 18.497
lfemur 14.8748 1.45863 -28.9254
ltibia 2.22639e-014
lfoot -3.22725 -15.0328
ltoes 7.19845
